<svg id="basic_link_02" data-name="basic / link_02" xmlns="http://www.w3.org/2000/svg" xmlns:xlink="http://www.w3.org/1999/xlink" width="24" height="24" viewBox="0 0 24 24">
  <defs>
    <clipPath id="clip-path">
      <rect id="basic_link_02_Background_Mask_" data-name="basic / link_02 (Background/Mask)" width="24" height="24" fill="none"/>
    </clipPath>
  </defs>
  <rect id="basic_link_02_Background_Mask_2" data-name="basic / link_02 (Background/Mask)" width="24" height="24" fill="none"/>
  <g id="basic_link_02-2" data-name="basic / link_02" clip-path="url(#clip-path)">
    <path id="basic_link_02-3" data-name="basic / link_02" d="M5.014,17.056H5A5,5,0,0,1,1.464,8.521L3.587,6.4,5,7.813,2.879,9.934a3,3,0,1,0,4.243,4.243l2.121-2.12,1.414,1.415-2.12,2.12A5,5,0,0,1,5.014,17.056Zm.693-4.293L4.293,11.349l7.071-7.071,1.414,1.414-7.07,7.07Zm7.779-2.122h0L12.071,9.228l2.121-2.12A3,3,0,1,0,9.95,2.864L7.828,4.985,6.414,3.571,8.536,1.449a5,5,0,0,1,7.07,7.071l-2.12,2.12Z" transform="translate(3.465 3.479)" fill="#2e3a59"/>
  </g>
</svg>
