<svg id="edit_copy" data-name="edit / copy" xmlns="http://www.w3.org/2000/svg" xmlns:xlink="http://www.w3.org/1999/xlink" width="20" height="24" viewBox="0 0 24 24">
  <defs>
    <clipPath id="clip-path">
      <rect id="edit_copy_Background_Mask_" data-name="edit / copy (Background/Mask)" width="24" height="24" fill="none"/>
    </clipPath>
  </defs>
  <rect id="edit_copy_Background_Mask_2" data-name="edit / copy (Background/Mask)" width="24" height="24" fill="none"/>
  <g id="edit_copy-2" data-name="edit / copy" clip-path="url(#clip-path)">
    <path id="edit_copy-3" data-name="edit / copy" d="M12.066,20H1.936A1.935,1.935,0,0,1,0,18V8A1.934,1.934,0,0,1,1.934,6H6V2A1.934,1.934,0,0,1,7.936,0h10.13a1.923,1.923,0,0,1,1.369.566A1.945,1.945,0,0,1,20,2V12a1.942,1.942,0,0,1-.566,1.434A1.921,1.921,0,0,1,18.066,14H14v4a1.937,1.937,0,0,1-1.935,2ZM2,8V18H12V14H7.936A1.935,1.935,0,0,1,6,12V8ZM8,2V12H18V2Z" transform="translate(1.999 1.999)" fill="#0094ce"/>
  </g>
</svg>
